<svg width="351" height="429" xmlns="http://www.w3.org/2000/svg" xmlns:xlink="http://www.w3.org/1999/xlink" overflow="hidden"><defs><clipPath id="clip0"><rect x="258" y="200" width="351" height="429"/></clipPath><clipPath id="clip1"><rect x="270" y="212" width="62" height="42"/></clipPath><clipPath id="clip2"><rect x="270" y="212" width="62" height="43"/></clipPath><clipPath id="clip3"><rect x="270" y="202" width="62" height="62"/></clipPath><clipPath id="clip4"><rect x="326" y="326" width="34" height="34"/></clipPath><clipPath id="clip5"><rect x="326" y="326" width="34" height="34"/></clipPath><clipPath id="clip6"><rect x="325" y="326" width="36" height="34"/></clipPath><clipPath id="clip7"><rect x="325" y="326" width="36" height="34"/></clipPath><clipPath id="clip8"><rect x="325" y="326" width="35" height="34"/></clipPath><clipPath id="clip9"><rect x="325" y="326" width="35" height="34"/></clipPath><clipPath id="clip10"><rect x="325" y="326" width="35" height="34"/></clipPath><clipPath id="clip11"><rect x="325" y="326" width="35" height="34"/></clipPath><clipPath id="clip12"><rect x="326" y="431" width="34" height="33"/></clipPath><clipPath id="clip13"><rect x="326" y="431" width="34" height="33"/></clipPath><clipPath id="clip14"><rect x="325" y="431" width="36" height="33"/></clipPath><clipPath id="clip15"><rect x="325" y="431" width="36" height="33"/></clipPath><clipPath id="clip16"><rect x="360" y="537" width="34" height="34"/></clipPath><clipPath id="clip17"><rect x="360" y="537" width="34" height="34"/></clipPath><clipPath id="clip18"><rect x="359" y="537" width="36" height="34"/></clipPath><clipPath id="clip19"><rect x="359" y="537" width="36" height="34"/></clipPath><clipPath id="clip20"><rect x="359" y="537" width="35" height="34"/></clipPath><clipPath id="clip21"><rect x="359" y="537" width="35" height="34"/></clipPath><clipPath id="clip22"><rect x="359" y="537" width="35" height="34"/></clipPath><clipPath id="clip23"><rect x="359" y="537" width="35" height="34"/></clipPath></defs><g clip-path="url(#clip0)" transform="translate(-258 -200)"><rect x="259" y="201" width="350" height="428" fill="#FFFFFF"/><path d="M278.475 219.493 535.475 219.493 535.475 317.493 278.475 317.493Z" stroke="#262261" stroke-width="1.33333" stroke-miterlimit="8" fill="#FFFFFF" fill-rule="evenodd"/><text font-family="Consolas,Consolas_MSFontService,sans-serif" font-weight="400" font-size="24" transform="translate(335.138 242)">net-<tspan font-size="24" x="52.6667" y="0">monitor:</tspan><tspan font-size="24" x="158" y="0">v1</tspan></text><path d="M322.349 211.992 335.438 221.436C335.621 229.886 335.793 238.335 335.977 246.785L278.524 253.992 267.031 246.039C266.848 237.424 267.203 227.815 267.031 219.199L322.349 211.992Z" fill="#FFFFFF" fill-rule="evenodd"/><g clip-path="url(#clip1)"><g clip-path="url(#clip2)"><g clip-path="url(#clip3)"><path d="M60.7237 43.3278 60.1416 23.1513 12.3517 29.6181 12.869 50.0534 60.7237 43.3278ZM57.0376 27.4841 57.4256 40.0944 53.9335 40.6118 53.5455 28.0014 57.0376 27.4841ZM48.178 28.7128 48.566 41.3231 45.0739 41.8405 44.6859 29.2301 48.178 28.7128ZM39.3184 29.9415 39.7064 42.5518 36.2143 43.0692 35.8263 30.4588 39.3184 29.9415ZM30.4588 31.2348 30.8468 43.8452 27.3547 44.3625 26.9667 31.6875 30.4588 31.2348ZM21.5993 32.4636 21.9873 45.0739 18.4952 45.5912 18.1072 32.9809 21.5993 32.4636Z" fill="#262261" transform="matrix(1.01346 0 0 1 270 202.412)"/><path d="M0.905358 41.9051 9.05358 47.79 8.6009 28.9715 0.323342 23.0866Z" fill="#262261" transform="matrix(1.01346 0 0 1 270 202.412)"/><path d="M58.6543 19.5299 48.566 12.3517 1.16403 19.0125 10.929 25.9967Z" fill="#262261" transform="matrix(1.01346 0 0 1 270 202.412)"/></g></g></g><text font-family="Calibri,Calibri_MSFontService,sans-serif" font-weight="700" font-size="14" transform="translate(315.683 290)">layer1 (blob) in [layers]<tspan font-size="14" x="-0.859741" y="22">layer2 (blob) in [layers]</tspan></text><path d="M309.97 286.132 301.167 286.132 301.167 254.5 301.833 254.5 301.833 285.798 301.5 285.465 309.97 285.465ZM308.637 281.798 316.637 285.798 308.637 289.798Z" fill="#4472C4"/><path d="M309.11 308.127 301.167 308.127 301.167 254.5 301.833 254.5 301.833 307.793 301.5 307.46 309.11 307.46ZM307.777 303.793 315.777 307.793 307.777 311.793Z" fill="#4472C4"/><text font-family="Calibri,Calibri_MSFontService,sans-serif" font-weight="700" font-size="14" transform="translate(314.823 269)">config (blob)</text><path d="M309.11 265.083 301.167 265.083 301.167 254.5 301.833 254.5 301.833 264.749 301.5 264.416 309.11 264.416ZM307.777 260.749 315.777 264.749 307.777 268.749Z" fill="#4472C4"/><path d="M334.478 333.495 564.478 333.495 564.478 408.495 334.478 408.495Z" stroke="#262261" stroke-width="1.33333" stroke-miterlimit="8" fill="#FFFFFF" fill-rule="evenodd"/><g clip-path="url(#clip4)"><g clip-path="url(#clip5)"><g clip-path="url(#clip6)"><g clip-path="url(#clip7)"><path d="M188.645 275.839 223.742 275.839 223.742 308.742 188.645 308.742Z" fill="#FFFFFF" transform="matrix(1.00067 0 0 1 136.668 50.1613)"/><g clip-path="url(#clip8)"><g clip-path="url(#clip9)"><g clip-path="url(#clip10)"><g clip-path="url(#clip11)"><path d="M20.3529 16.8296 17.7875 14.572 9.64624 24.5944 12.2459 26.818Z" fill="#262261" transform="matrix(1.05141 0 0 1 325.44 326.82)"/><path d="M9.8515 27.4678 8.48322 26.3732 7.73067 29.6913 10.8093 28.2887Z" fill="#262261" transform="matrix(1.05141 0 0 1 325.44 326.82)"/><path d="M28.2887 1.64191 30.8885 3.86535 32.2568 2.18923 29.5886 0.0342066Z" fill="#262261" transform="matrix(1.05141 0 0 1 325.44 326.82)"/><path d="M23.1919 16.3507 24.7998 17.6506 28.8704 12.6564C30.2386 11.0829 30.8885 9.09895 30.5806 7.45702 30.4439 6.70447 30.1018 6.05458 29.6229 5.50723L27.0231 3.24963 19.0531 12.9985 21.6528 15.2561 28.2546 7.11494C28.3915 7.3202 28.494 7.55963 28.5282 7.83333 28.7335 8.85952 28.2204 10.2277 27.2967 11.3224L23.1919 16.3507Z" fill="#262261" transform="matrix(1.05141 0 0 1 325.44 326.82)"/><path d="M1.74453 26.7153C1.81295 26.5442 1.88136 26.3732 1.98399 26.2022 2.18923 25.8602 2.42867 25.5865 2.73652 25.3128 3.31803 24.7656 4.07058 24.3208 4.85732 23.9103 5.64405 23.4999 6.46505 23.1237 7.3202 22.7132 7.73067 22.5079 8.17535 22.2684 8.62004 21.9605 8.85952 21.8238 9.06473 21.6528 9.30416 21.4133 9.54364 21.1739 9.78306 20.9001 9.91988 20.4555 10.0909 20.045 10.0567 19.4977 9.91988 19.1215 9.78306 18.711 9.50942 18.4031 9.26999 18.1636 8.75686 17.719 8.27796 17.4796 7.83333 17.2401 6.9439 16.7953 6.08874 16.5218 5.30202 16.1455 4.54947 15.7692 3.89955 15.3587 3.52327 14.8114 3.147 14.2983 3.01018 13.6142 3.11279 12.8617 3.21541 12.0749 3.45487 11.3224 3.86535 10.6724 4.72051 9.37259 6.32822 8.51744 8.03853 8.03853 8.89369 7.79911 9.78306 7.62806 10.7067 7.52541 11.1513 7.45702 11.6302 7.4228 12.0749 7.38864 12.5196 7.35442 12.9985 7.3202 13.4774 7.3202 11.6302 6.84129 9.71468 6.73869 7.79911 6.97812 6.84129 7.11494 5.88354 7.35442 4.95995 7.76489 4.03637 8.17535 3.1812 8.79108 2.49708 9.64624 2.15501 10.0567 1.88136 10.5356 1.67612 11.0145 1.47088 11.5276 1.33406 12.0065 1.23144 12.5538 1.12882 13.1011 1.12882 13.6484 1.19723 14.2299 1.29985 14.8114 1.50509 15.393 1.84715 15.906 2.18923 16.4191 2.59971 16.7953 3.04439 17.1375 3.48907 17.4796 3.93375 17.719 4.37843 17.9585 5.2678 18.4031 6.15718 18.7451 6.9439 19.0872 7.3202 19.2582 7.66228 19.4635 7.86749 19.6346 7.97009 19.703 8.00431 19.7714 8.00431 19.8055 8.00431 19.8399 8.00431 19.8055 8.00431 19.8055 8.00431 19.8055 7.97009 19.9082 7.86749 20.0109 7.76489 20.1135 7.62806 20.216 7.49124 20.3529 7.18338 20.5924 6.80713 20.7975 6.43083 21.037 5.64405 21.4817 4.82312 21.9264 4.00216 22.4053 3.1812 22.9184 2.36025 23.4999 1.67612 24.2867 1.33406 24.6629 1.0262 25.1418 0.820957 25.6207 0.718338 25.8602 0.615718 26.1338 0.58151 26.4075 0.513098 26.6811 0.513098 26.9206 0.478891 27.16 0.444684 27.6731 0.444684 28.1862 0.615718 28.7335 0.752541 29.2466 1.0604 29.7597 1.50509 30.1018 1.94977 30.4439 2.46287 30.6149 2.94176 30.6833 3.45487 30.7516 3.93375 30.7516 4.41264 30.6833 5.37043 30.5806 6.25978 30.307 7.11494 29.965 6.1914 30.136 5.2678 30.2386 4.37843 30.2044 3.93375 30.1701 3.48907 30.136 3.07859 29.9991 2.66811 29.8965 2.29184 29.6913 2.05239 29.4176 1.5393 28.9046 1.47088 28.0836 1.64191 27.2626 1.64191 27.1257 1.71032 26.8863 1.74453 26.7153Z" fill="#262261" transform="matrix(1.05141 0 0 1 325.44 326.82)"/></g></g></g></g></g></g></g></g><text font-family="Consolas,Consolas_MSFontService,sans-serif" font-weight="400" font-size="14" transform="translate(362.754 346)">Wabbit Networks<tspan font-size="14" x="122.667" y="0">signature</tspan><tspan font-family="Calibri,Calibri_MSFontService,sans-serif" font-weight="700" font-size="14" x="20.1837" y="27">signature [blobs]</tspan></text><path d="M376.112 368.829 350 368.829 350 358 352 358 352 367.829 351 366.829 376.112 366.829ZM374.778 363.829 382.778 367.829 374.778 371.829Z" fill="#4472C4"/><text font-family="Calibri,Calibri_MSFontService,sans-serif" font-weight="700" font-size="14" transform="translate(383.006 396)">reference [manifests]</text><path d="M382.879 392.741 284 392.741 284 323.667 286 323.667 286 391.741 285 390.741 382.879 390.741ZM281 325 285 317 289 325Z" fill="#4472C4"/><path d="M334.478 438.495 564.478 438.495 564.478 511.495 334.478 511.495Z" stroke="#262261" stroke-width="1.33333" stroke-miterlimit="8" fill="#FFFFFF" fill-rule="evenodd"/><text font-family="Consolas,Consolas_MSFontService,sans-serif" font-weight="400" font-size="14" transform="translate(362.754 451)">SBoM<tspan font-size="14" x="38.3333" y="0">Document</tspan><tspan font-family="Calibri,Calibri_MSFontService,sans-serif" font-weight="700" font-size="14" x="20.1837" y="23">sbom</tspan><tspan font-family="Calibri,Calibri_MSFontService,sans-serif" font-weight="700" font-size="14" x="55.3504" y="23">[blobs]</tspan></text><path d="M376.117 470.753 352 470.753 352 446 354 446 354 469.753 353 468.753 376.117 468.753ZM374.784 465.753 382.784 469.753 374.784 473.753Z" fill="#4472C4"/><text font-family="Calibri,Calibri_MSFontService,sans-serif" font-weight="700" font-size="14" transform="translate(383.006 498)">reference [manifests]</text><g clip-path="url(#clip12)"><g clip-path="url(#clip13)"><g clip-path="url(#clip14)"><g clip-path="url(#clip15)"><path d="M0 0 24.4444 0 24.4444 17.6428C12.2222 17.6428 12.2222 24.365 0 20.5456Z" stroke="#262261" stroke-width="0.814813" stroke-miterlimit="8" fill="#FFFFFF" fill-rule="evenodd" transform="matrix(-1.03236 0 0 1 356.249 436.806)"/><text font-family="Calibri,Calibri_MSFontService,sans-serif" font-weight="400" font-size="19" transform="matrix(0.630893 0 0 0.611111 332.084 445)">S<tspan font-size="19" x="7.41519" y="4.90909">B</tspan><tspan font-size="19" x="15.6819" y="9.81818">o</tspan><tspan font-size="16" x="22.0859" y="18">M</tspan></text></g></g></g></g><path d="M382.879 494.667 284 494.667 284 323.667 286 323.667 286 493.667 285 492.667 382.879 492.667ZM281 325 285 317 289 325Z" fill="#4472C4"/><path d="M368.478 544.495 598.478 544.495 598.478 617.495 368.478 617.495Z" stroke="#262261" stroke-width="1.33333" stroke-miterlimit="8" fill="#FFFFFF" fill-rule="evenodd"/><text font-family="Consolas,Consolas_MSFontService,sans-serif" font-weight="400" font-size="14" transform="translate(396.989 557)">Wabbit Networks<tspan font-size="14" x="122.667" y="0">signature</tspan><tspan font-family="Calibri,Calibri_MSFontService,sans-serif" font-weight="700" font-size="14" x="20.1837" y="26">signature [blobs]</tspan></text><path d="M410.117 579.292 386.667 579.292 386.667 553 387.667 554 387 554 387 552 388.667 552 388.667 578.292 387.667 577.292 410.117 577.292ZM408.784 574.292 416.784 578.292 408.784 582.292Z" fill="#4472C4"/><text font-family="Calibri,Calibri_MSFontService,sans-serif" font-weight="700" font-size="14" transform="translate(417.241 606)">reference [manifests]</text><g clip-path="url(#clip16)"><g clip-path="url(#clip17)"><g clip-path="url(#clip18)"><g clip-path="url(#clip19)"><path d="M188.645 275.839 223.742 275.839 223.742 308.742 188.645 308.742Z" fill="#FFFFFF" transform="matrix(1.00067 0 0 1 170.668 261.161)"/><g clip-path="url(#clip20)"><g clip-path="url(#clip21)"><g clip-path="url(#clip22)"><g clip-path="url(#clip23)"><path d="M20.3529 16.8296 17.7875 14.572 9.64624 24.5944 12.2459 26.818Z" fill="#262261" transform="matrix(1.05141 0 0 1 359.44 537.82)"/><path d="M9.8515 27.4678 8.48322 26.3732 7.73067 29.6913 10.8093 28.2887Z" fill="#262261" transform="matrix(1.05141 0 0 1 359.44 537.82)"/><path d="M28.2887 1.64191 30.8885 3.86535 32.2568 2.18923 29.5886 0.0342066Z" fill="#262261" transform="matrix(1.05141 0 0 1 359.44 537.82)"/><path d="M23.1919 16.3507 24.7998 17.6506 28.8704 12.6564C30.2386 11.0829 30.8885 9.09895 30.5806 7.45702 30.4439 6.70447 30.1018 6.05458 29.6229 5.50723L27.0231 3.24963 19.0531 12.9985 21.6528 15.2561 28.2546 7.11494C28.3915 7.3202 28.494 7.55963 28.5282 7.83333 28.7335 8.85952 28.2204 10.2277 27.2967 11.3224L23.1919 16.3507Z" fill="#262261" transform="matrix(1.05141 0 0 1 359.44 537.82)"/><path d="M1.74453 26.7153C1.81295 26.5442 1.88136 26.3732 1.98399 26.2022 2.18923 25.8602 2.42867 25.5865 2.73652 25.3128 3.31803 24.7656 4.07058 24.3208 4.85732 23.9103 5.64405 23.4999 6.46505 23.1237 7.3202 22.7132 7.73067 22.5079 8.17535 22.2684 8.62004 21.9605 8.85952 21.8238 9.06473 21.6528 9.30416 21.4133 9.54364 21.1739 9.78306 20.9001 9.91988 20.4555 10.0909 20.045 10.0567 19.4977 9.91988 19.1215 9.78306 18.711 9.50942 18.4031 9.26999 18.1636 8.75686 17.719 8.27796 17.4796 7.83333 17.2401 6.9439 16.7953 6.08874 16.5218 5.30202 16.1455 4.54947 15.7692 3.89955 15.3587 3.52327 14.8114 3.147 14.2983 3.01018 13.6142 3.11279 12.8617 3.21541 12.0749 3.45487 11.3224 3.86535 10.6724 4.72051 9.37259 6.32822 8.51744 8.03853 8.03853 8.89369 7.79911 9.78306 7.62806 10.7067 7.52541 11.1513 7.45702 11.6302 7.4228 12.0749 7.38864 12.5196 7.35442 12.9985 7.3202 13.4774 7.3202 11.6302 6.84129 9.71468 6.73869 7.79911 6.97812 6.84129 7.11494 5.88354 7.35442 4.95995 7.76489 4.03637 8.17535 3.1812 8.79108 2.49708 9.64624 2.15501 10.0567 1.88136 10.5356 1.67612 11.0145 1.47088 11.5276 1.33406 12.0065 1.23144 12.5538 1.12882 13.1011 1.12882 13.6484 1.19723 14.2299 1.29985 14.8114 1.50509 15.393 1.84715 15.906 2.18923 16.4191 2.59971 16.7953 3.04439 17.1375 3.48907 17.4796 3.93375 17.719 4.37843 17.9585 5.2678 18.4031 6.15718 18.7451 6.9439 19.0872 7.3202 19.2582 7.66228 19.4635 7.86749 19.6346 7.97009 19.703 8.00431 19.7714 8.00431 19.8055 8.00431 19.8399 8.00431 19.8055 8.00431 19.8055 8.00431 19.8055 7.97009 19.9082 7.86749 20.0109 7.76489 20.1135 7.62806 20.216 7.49124 20.3529 7.18338 20.5924 6.80713 20.7975 6.43083 21.037 5.64405 21.4817 4.82312 21.9264 4.00216 22.4053 3.1812 22.9184 2.36025 23.4999 1.67612 24.2867 1.33406 24.6629 1.0262 25.1418 0.820957 25.6207 0.718338 25.8602 0.615718 26.1338 0.58151 26.4075 0.513098 26.6811 0.513098 26.9206 0.478891 27.16 0.444684 27.6731 0.444684 28.1862 0.615718 28.7335 0.752541 29.2466 1.0604 29.7597 1.50509 30.1018 1.94977 30.4439 2.46287 30.6149 2.94176 30.6833 3.45487 30.7516 3.93375 30.7516 4.41264 30.6833 5.37043 30.5806 6.25978 30.307 7.11494 29.965 6.1914 30.136 5.2678 30.2386 4.37843 30.2044 3.93375 30.1701 3.48907 30.136 3.07859 29.9991 2.66811 29.8965 2.29184 29.6913 2.05239 29.4176 1.5393 28.9046 1.47088 28.0836 1.64191 27.2626 1.64191 27.1257 1.71032 26.8863 1.74453 26.7153Z" fill="#262261" transform="matrix(1.05141 0 0 1 359.44 537.82)"/></g></g></g></g></g></g></g></g><path d="M417.199 603.21 333 603.21 333 517.667 335 517.667 335 602.21 334 601.21 417.199 601.21ZM330 519 334 511 338 519Z" fill="#4472C4"/></g></svg>